<svg xmlns="http://www.w3.org/2000/svg" viewBox="0 0 4203.57 936.28"><title>Asset 1</title><g id="Layer_2" data-name="Layer 2"><g id="Layer_1-2" data-name="Layer 1"><path d="M4052.81,464.85a3.9,3.9,0,0,1-2.77-6.66c7.89-8,15.51-13,26.07-19.92A568.06,568.06,0,0,0,4126,401.94c51.9-41.93,78.82-87.55,67-113.5-5.59-12.42-12.5-20-20.55-22.42-7.51-2.3-16.47-.29-26.61,6-23.79,14.89-50.3,47.65-46.83,54.65,3,5.83,14.65,24,39.45,11.38,23.85-12,37.18-23.15,37.31-23.25a3.91,3.91,0,0,1,5.05,6c-.56.48-14.1,11.85-38.84,24.26-24.88,12.64-42.45-.1-50-14.85-7.23-14.61,28.87-51.75,49.69-64.79,12.16-7.52,23.26-9.8,33-6.83,10.29,3.16,18.83,12.13,25.38,26.67,13.53,29.7-13.63,77.91-69.19,122.81a572.48,572.48,0,0,1-50.55,36.78c-10.54,6.93-17.5,11.5-24.81,18.89A3.9,3.9,0,0,1,4052.81,464.85Z"/><path d="M4090.91,328.54c-7.65,0-18.2-5-25.09-9.48-14.47-9.5-20.6-20.73-16.82-30.8,4.42-11.87,51.45-78.44,66-86.31,13.4-7.24,31.22,2.42,47.61,25.89,13.11,18.85,7.64,33.52,7.4,34.14a3.91,3.91,0,0,1-7.29-2.81c.19-.55,4-11.68-6.52-26.86-10.23-14.65-26.16-29.61-37.49-23.49-12.07,6.52-58,70.29-62.42,82.18-2.54,6.77,4.06,13.78,8.22,17.36,11.14,9.56,25.6,13.49,28.07,12.13a3.84,3.84,0,0,1,5.47.14,4,4,0,0,1-.15,5.57C4096.22,327.85,4093.76,328.54,4090.91,328.54Z"/><path d="M4050.71,295.11c-3.87,0-8.07-2.26-12.51-6.72-10.18-10.2-20.5-30.78-20.09-40,.12-2.41,1.22-7.39,9.42-23a3.9,3.9,0,1,1,6.92,3.62c-7.74,14.8-8.49,18.89-8.53,19.79-.26,5.86,8.27,24.59,17.81,34.17,4.18,4.2,6.57,4.43,7.06,4.41h.17a3.91,3.91,0,0,1,.15,7.81Zm79.17-87.54a3.91,3.91,0,0,1-2.68-6.75c.42-4.59-12.74-24.48-30.84-32.11-13.61-5.72-24.7-2-33,11.1a3.91,3.91,0,0,1-6.61-4.18c10.66-16.87,24.12-18.46,33.54-16.84,21.7,3.75,41.73,27.67,44.34,39.2,1.19,5.32-1.07,7.84-2.53,8.87A3.89,3.89,0,0,1,4129.88,207.57Z"/><path d="M4079.89,164.74a3.9,3.9,0,0,1-3.13-6.23c.38-.52,1.53-2.07-.2-5.89-4.39-9.72-23.22-23.17-38.12-24.43-6.14-.49-10.61,1.15-13.18,5a3.91,3.91,0,0,1-6.49-4.36c4.2-6.25,11.25-9.18,20.32-8.39,16.53,1.39,38.62,15.75,44.6,29,3,6.61,1.29,11.13-.66,13.76A3.91,3.91,0,0,1,4079.89,164.74Z"/><path d="M4064.38,238.77c-19,0-43.14-7.1-60.22-27.61-14.35-17.39-15.89-34.39-14.66-45.59a3.91,3.91,0,1,1,7.77.85c-1.55,14.12,2.79,27.5,12.9,39.76,23.72,28.48,63.58,27.33,74.65,20.56.43-.25.84-.51,1.24-.76l-.5-.13c-13.91-3.67-38.07-23-39.36-38-.49-5.74,2.32-10.31,7.93-12.87a14.13,14.13,0,0,1,6-1.14c9.06.57,20.47,9.58,34.16,26.8,5.71,7.16,7.92,13,6.95,18.45s-4.87,9.86-12.32,14.36C4083.61,236.64,4074.77,238.77,4064.38,238.77Zm-4.54-57.16a6,6,0,0,0-2.49.46c-3.22,1.47-3.51,3.39-3.36,5.08.89,10.35,21.37,27.92,33.56,31.14,2.83.74,4.89.65,5.53-.27a4.15,4.15,0,0,1,.46-.56c.42-3-1.35-6.9-5.41-12C4076.39,190.71,4066.08,182,4059.84,181.61Z"/><path d="M3812.64,648.81a4,4,0,0,1-1.27-.21,3.91,3.91,0,0,1-2.43-5c26.33-77.09,75.69-125,124-167.51q6.18-5.43,12.27-10.71c61.45-53.48,110-95.73,87.13-178.82-13.67-33.09-41.92-51.64-83.79-54.65a3.92,3.92,0,0,1-3.62-4.18,4,4,0,0,1,4.18-3.62c45.07,3.25,75.56,23.41,90.61,59.93,24.32,88.28-28.37,134.14-89.38,187.23q-6.06,5.28-12.24,10.69c-47.51,41.79-96.05,88.89-121.75,164.17A3.92,3.92,0,0,1,3812.64,648.81Z"/><path d="M4077.26,402.48a3.9,3.9,0,0,1-3.3-6c20.58-32.62-35.1-104.19-35.67-104.91a3.91,3.91,0,1,1,6.14-4.83c2.45,3.11,59.62,76.68,36.14,113.91A3.89,3.89,0,0,1,4077.26,402.48Z"/><path d="M3949.13,256.34a3.91,3.91,0,0,1-2.48-6.93c20-16.41,50.3-11.51,51.57-11.31a3.91,3.91,0,0,1-1.31,7.71c-.27-.06-28-4.49-45.3,9.64A3.89,3.89,0,0,1,3949.13,256.34Z"/><path d="M4030.21,470a100.61,100.61,0,0,1-26.9-4.21,3.91,3.91,0,0,1,2.12-7.53c21.27,6,37,5.15,46.67-2.44a3.91,3.91,0,1,1,4.82,6.15C4050.09,467.33,4041.15,470,4030.21,470Z"/><path d="M3808.77,843.1a12.68,12.68,0,0,1-12.42-13,12.42,12.42,0,0,1,13.15-12.35h0a11.78,11.78,0,0,1,8.66,3.94l.77,1h0a11.59,11.59,0,0,1,2.54,8.19,11.81,11.81,0,0,1-3.89,8.68A12.24,12.24,0,0,1,3808.77,843.1Zm.05-17.52a4.18,4.18,0,0,0-3,1,4.62,4.62,0,0,0-1.66,3.51,4.86,4.86,0,0,0,4.61,5.15,4.57,4.57,0,0,0,3.42-1.35,4.4,4.4,0,0,0,1.49-3.34,4.09,4.09,0,0,0-.86-3.05l-.61-.77a4.09,4.09,0,0,0-3-1.18Z"/><path d="M3531.8,936.28a18.74,18.74,0,0,1-6.52-1.12c-13.43-4.9-19.94-24.45-20.48-61.53s-10.71-64.24-30.15-80.46c-22.31-18.61-58.12-24-106.44-15.93l-114.87,17.82c-41.18,6.37-64,3.27-71.67-9.74-10.49-17.72,11.65-46.57,31.18-72,8.5-11.08,20.13-26.24,19.34-30,0,0-.4,0-1.41,0a35.53,35.53,0,0,0-8.35,1.3c-22.19,5.48-45.79,39-70.79,74.55-41.31,58.71-88.11,125.27-153.75,112.43a3.91,3.91,0,1,1,1.5-7.67c60.63,11.83,105.91-52.49,145.86-109.26,27-38.34,50.28-71.45,75.3-77.64,6.73-1.67,14.89-2.94,18.26,2.17,4.47,6.84-3.26,17.47-19.76,39-16.23,21.15-38.45,50.12-30.65,63.28,3.93,6.63,18.16,13,63.74,6L3367,769.52c51.34-8.54,88.22-2.77,112.69,17.65,21.27,17.75,32.36,46.8,33,86.35.6,40.47,8.67,51.87,15.35,54.3,18.8,6.86,58.46-38.8,96.78-83C3675,787,3726.8,727.06,3766.48,734c14.87,2.59,26.7,14.59,35.18,35.69l1.45-1.27a4,4,0,0,1,4.56-.41,3.91,3.91,0,0,1,1.82,4.19L3804.07,797a3.91,3.91,0,0,1-6,2.38L3777.29,785a3.9,3.9,0,0,1,2.06-7.11l1.76-.07L3773,757.49a3.91,3.91,0,0,1,7.26-2.91l10.21,25.48a3.92,3.92,0,0,1-.34,3.58,4.57,4.57,0,0,1-.38.49l8,5.54,2.09-9.58a3.75,3.75,0,0,1-.57-.09,3.91,3.91,0,0,1-2.71-2.31l-1.55-3.76c-7.59-19.55-17.33-30.08-29.81-32.25-35.16-6.14-88,54.65-134.49,108.29C3590.72,896,3555.77,936.28,3531.8,936.28Z"/><path d="M2348.82,778.49c-93.31,0-168.43-30-231.89-119.13a3.9,3.9,0,1,1,6.36-4.53c114.07,160.11,268.9,123.93,503.27,69.16,142.7-33.35,320.29-74.86,534-80.18,76-1.88,143.82-.23,203.66,1.22,240.75,5.86,373.35,9,530.59-222.86,35.9-52.81,30.19-82.36,16.38-153.77l-2.9-15.09C3900.23,210.6,3954.83,149,3993.41,133c19.06-7.94,34.2-5.48,42.66,6.85,8.64,12.54,26.41,34.55,26.59,34.76a3.91,3.91,0,1,1-6.08,4.92c-.73-.91-18.14-22.46-26.95-35.25-7.88-11.51-22.42-8.56-33.23-4.06-39.36,16.35-87.22,75.64-80.42,111.62l2.9,15.06c13.82,71.51,20.13,104.14-17.59,159.64C3741.65,662,3607.51,658.74,3364,652.84c-59.73-1.45-127.44-3.1-203.27-1.21-212.91,5.3-390.07,46.7-532.42,80C2519.58,757,2427.7,778.49,2348.82,778.49Z"/><path d="M1988.26,535.57A21.34,21.34,0,0,1,1968,520.74a21.62,21.62,0,0,1,13.44-27.24,21.4,21.4,0,0,1,27.1,13.71s0,0,0,.05a21.88,21.88,0,0,1-13.6,27.24A21.4,21.4,0,0,1,1988.26,535.57Zm-.12-35.32a14.17,14.17,0,0,0-4.26.67,13.78,13.78,0,0,0-8.47,17.39,13.53,13.53,0,0,0,17.06,8.78,14,14,0,0,0,8.63-17.42A13.66,13.66,0,0,0,1988.14,500.25Z"/><path d="M2288.48,840.75a4.46,4.46,0,0,1-.72-.06C2195.14,823.5,2106.86,762,2045.54,672c-15.37-22.69-31.29-56.36-47.33-100.11a3.91,3.91,0,0,1,7.34-2.69c15.82,43.15,31.45,76.25,46.46,98.41C2112.15,755.9,2198.6,816.2,2289.19,833a3.91,3.91,0,0,1-.71,7.75Z"/><path d="M2364.82,722.17a180.09,180.09,0,0,1-115.25-41.54l-.67,2.27a3.91,3.91,0,0,1-3.63,2.8h-.12a3.9,3.9,0,0,1-3.67-2.57l-9.59-26.25a3.91,3.91,0,0,1,.5-3.64,4.11,4.11,0,0,1,3.3-1.61l27.7.93a3.91,3.91,0,0,1,2.15,7.08l-2.13,1.54,16.85,12.3a3.9,3.9,0,1,1-4.6,6.31l-21.21-15.48a3.87,3.87,0,0,1-1.6-3.16A4.15,4.15,0,0,1,2253,660l-11.79-.4,4.05,11.11a4.38,4.38,0,0,1,1-.48,3.93,3.93,0,0,1,3.58.59l4.79,3.6a3.72,3.72,0,0,1,.91.95,172.73,172.73,0,0,0,129.24,37.84,3.84,3.84,0,0,1,4.32,3.44,3.9,3.9,0,0,1-3.44,4.32A187.48,187.48,0,0,1,2364.82,722.17Z"/><path d="M2985.64,869.82h-.09c-15.69-.36-22.93-13-29.31-24.21-6.1-10.69-11.37-19.91-22.53-20.18h-.48c-11,0-17.12,8.92-24.14,19.24-7.34,10.78-15.9,23.12-31.25,22.65-15.67-.36-22.87-13-29.22-24.16-6.1-10.72-11.37-20-22.62-20.23s-17.51,8.79-24.62,19.28S2786,864.83,2771,864.83h-.67c-15.67-.36-22.88-13-29.23-24.17-6.1-10.71-11.36-20-22.61-20.22H2718c-11,0-17.12,8.92-24.14,19.24-7.23,10.63-15.42,22.66-30.58,22.66h-.67a3.91,3.91,0,0,1,.09-7.81h.57c11,0,17.12-8.92,24.14-19.24,7.34-10.79,15.75-23.15,31.25-22.65,15.67.36,22.88,13,29.23,24.16,6.1,10.72,11.36,20,22.61,20.23h.48c10.94,0,17-8.9,24-19.19,7.34-10.81,15.72-23,31.27-22.7s22.88,13,29.23,24.17c6.09,10.71,11.36,20,22.61,20.22,11.47.49,17.49-8.77,24.62-19.24,7.34-10.79,15.82-23,31.25-22.65s22.78,13,29.13,24.12c6.14,10.73,11.43,20,22.71,20.27a3.91,3.91,0,0,1-.09,7.81Z"/><path d="M2614.7,877.32a3.87,3.87,0,0,1-2.86-1.24l-48.75-52.36a3.91,3.91,0,0,1,5.72-5.32l48.75,52.36a3.89,3.89,0,0,1-.2,5.51A3.85,3.85,0,0,1,2614.7,877.32Z"/><path d="M2564.4,875.61a3.91,3.91,0,0,1-2.68-6.75l51.84-49.08a3.91,3.91,0,0,1,5.37,5.68l-51.84,49.08A3.93,3.93,0,0,1,2564.4,875.61Z"/><path d="M2520.77,874.35a3.87,3.87,0,0,1-2.86-1.24l-48.75-52.36a3.9,3.9,0,1,1,5.71-5.32l48.75,52.36a3.9,3.9,0,0,1-2.85,6.56Z"/><path d="M2470.47,872.64a3.91,3.91,0,0,1-2.69-6.75l51.85-49.08a3.91,3.91,0,0,1,5.37,5.68l-51.84,49.08A3.93,3.93,0,0,1,2470.47,872.64Z"/><path d="M2352.71,845.75c-2.46,0-5.34,0-8.56-.06-4.1,0-8.78-.09-13.88-.09a3.91,3.91,0,1,1,0-7.82c5.14,0,9.84.05,14,.09,3.2,0,6,.07,8.48.07a3.91,3.91,0,0,1,0,7.81Z"/><path d="M2310.33,900.44c-188.39,0-300.29-169.73-376.58-285.43-43.33-65.71-77.5-117.71-107.55-113.91-20.71,2.56-40.8,32.54-61.43,91.64-22.74,65.13-58.51,105.88-106.3,121.11-125.43,40-317.88-96.82-504-229.12-89-63.25-173-123-250.41-164.94-35.56-19.3-45.21-18.25-47.8-15.88-6.39,5.83,6.86,36.63,19.69,66.41,28.49,66.17,71.55,166.18,25.65,234.2-34.94,51.79-116.78,76.53-243.53,73.68L138,666.47a345.68,345.68,0,0,0-58.33,5c-32.54,41.34-59.27,52.91-72.15,48.58C2,718.21-.76,713.45.18,707.62,2.38,693.89,25,674,75.09,664.37c11.84-15.24,24.62-34.72,37.85-59.3l4-6.45a3.9,3.9,0,0,1,3.12-1.85,3.76,3.76,0,0,1,3.3,1.51l.92,1.2L123.6,571l-26,11.45,1.63.4a3.9,3.9,0,0,1,2.35,5.92l-27.23,42a3.91,3.91,0,0,1-6.56-4.26L92,589.1l-7.5-1.82a3.91,3.91,0,0,1-.65-7.38l41.94-18.44a3.92,3.92,0,0,1,5.49,3.48l1.08,46.27a3.91,3.91,0,0,1-7,2.48l-4.76-6.16-.9,1.45a458.22,458.22,0,0,1-33.22,53.44A368.63,368.63,0,0,1,138,658.66l520.24,11.72c123.86,2.88,203.51-20.79,236.87-70.23,43.51-64.48,1.47-162.13-26.35-226.74-17-39.55-28.28-65.69-17.78-75.27,7.73-7.06,24.73-2.63,56.8,14.78C985.57,355.1,1069.81,415,1159,478.36c184.56,131.18,375.43,266.79,497.1,228,46-14.64,79.1-52.67,101.3-116.24,22-63,43.56-93.8,67.84-96.82,34.83-4.33,68.46,46.73,115,117.37,87.29,132.39,206.89,313.71,424.16,277.3a3.91,3.91,0,1,1,1.29,7.71A335,335,0,0,1,2310.33,900.44ZM67.24,674C26.62,683.62,9.33,700,7.89,708.86c-.41,2.57.82,3.36,2.09,3.78C18,715.36,39.44,706.7,67.24,674Z"/><path d="M3871.93,745.41c-24.18,0-58.66-21.43-117.15-72.09l-1,4a3.9,3.9,0,0,1-7.38.54l-13.31-31.57a3.91,3.91,0,0,1,3.59-5.43l34.66-.15h0a3.91,3.91,0,0,1,2.35,7l-3.41,2.56,26.85,17.29a3.91,3.91,0,0,1-4.23,6.57l-31.57-20.32a3.9,3.9,0,0,1-1.78-3.14,3.74,3.74,0,0,1,.53-2.13l-17.53.08,6.71,15.92a3.93,3.93,0,0,1,1.78-1.4,3.88,3.88,0,0,1,3.53.35l2.77,1.77.31.2,3.26,2.09a3.91,3.91,0,0,1,1.62,2.11c61.41,52.92,95.38,72.37,116.46,67.09,19.38-4.85,29.88-32.37,44.41-70.47,21.59-56.6,54.21-142.14,143.72-220.8a3.91,3.91,0,0,1,5.16,5.88c-88.06,77.37-119,158.48-141.58,217.71-15.37,40.3-26.47,69.42-49.81,75.26A36.5,36.5,0,0,1,3871.93,745.41Z"/><path d="M3569.68,503.14a215.91,215.91,0,0,1-45.71-4.77,3.92,3.92,0,0,1-3.08-3.83V390.26L3449,462.91a3.9,3.9,0,0,1-5,.43,222.2,222.2,0,0,1-62.22-67.13,3.92,3.92,0,0,1,.58-4.77l138.61-140V68.62a3.91,3.91,0,0,1,3.12-3.83,219.49,219.49,0,0,1,91,0,3.91,3.91,0,0,1,3.12,3.83V251.29l138.77,140.15a3.93,3.93,0,0,1,.57,4.77,222.18,222.18,0,0,1-62.21,67.13,3.92,3.92,0,0,1-5.05-.43l-72.08-72.81V494.54a3.91,3.91,0,0,1-3.08,3.82A214.31,214.31,0,0,1,3569.68,503.14Zm-41-11.78a212.63,212.63,0,0,0,81.64,0V380.6a3.91,3.91,0,0,1,6.68-2.76L3693.43,455a214,214,0,0,0,55.78-60.25L3611.47,255.65a3.9,3.9,0,0,1-1.13-2.75V71.82a211.06,211.06,0,0,0-81.64,0V253.05a3.88,3.88,0,0,1-1.13,2.75L3390,394.78A214.11,214.11,0,0,0,3445.76,455L3522,378a3.91,3.91,0,0,1,6.68,2.76Z"/><path d="M3569.68,563.32c-153.79,0-278.9-126.35-278.9-281.66S3415.89,0,3569.68,0s278.75,126.35,278.75,281.66S3723.38,563.32,3569.68,563.32Zm0-555.5c-149.48,0-271.09,122.84-271.09,273.84S3420.2,555.5,3569.68,555.5s270.93-122.84,270.93-273.84S3719.07,7.82,3569.68,7.82Zm0,495.32c-121,0-219.48-99.36-219.48-221.48S3448.65,60,3569.68,60,3789,159.45,3789,281.66,3690.61,503.14,3569.68,503.14Zm0-435.3C3453,67.84,3358,163.76,3358,281.66s95,213.66,211.67,213.66,211.5-95.85,211.5-213.66S3686.3,67.84,3569.68,67.84Z"/></g></g></svg>